
In the coastal town of Los Angeles, a gang of bank robbers call themselves the ex-presidents. commit their crimes while wearing masks of ex-presidents Reagan, Carter, Nixon and Johnson. The F.B.I. believes that the members of the gang could be surfers and send young agent Johnny Utah undercover at the beach to mix with the surfers and gather information. Utah meets surfer Bodhi and gets drawn into the lifestyle of his new friend.
 
http://www.imdb.com/title/tt0102685/

# Keanu Reeves as FBI Agent Johnny Utah
# Patrick Swayze as Bodhi
# Gary Busey as FBI Agent Angelo Pappas
# Lori Petty as Tyler Ann Endicott
# John C. McGinley as FBI Director Ben Harp
# James LeGros as Roach
# Sydney Walsh as Miss Deer
# John Philbin as Nathanial
# Bojesse Christopher as Grommet
# Lee Tergesen as Rosie
 
http://img683.imageshack.us/img683/9277/69892153.png
 
http://img193.imageshack.us/img193/6307/45346423.png
 
http://img600.imageshack.us/img600/9592/70591071.png
 
http://img600.imageshack.us/img600/9592/70591071.png
 
http://img18.imageshack.us/img18/4421/74874079.png
 
http://img716.imageshack.us/img716/1381/40301487.png
 
http://img708.imageshack.us/img708/9692/50730312.png
 
http://img69.imageshack.us/img69/6939/19250310.png
 
http://img716.imageshack.us/img716/1562/77237120.png


General
Complete name : POINT_BREAK.avi
Format : AVI
Format/Info : Audio Video Interleave
File size : 700 MiB
Duration : 1h 57mn
Overall bit rate : 835 Kbps
Writing application : VirtualDubMod 1.5.4.1 (build 2178/release)
Writing library : VirtualDubMod build 2178/release

Video
ID : 0
Format : MPEG-4 Visual
Format profile : Advanced Simple@L5
Format settings, BVOP : Yes
Format settings, QPel : No
Format settings, GMC : No warppoints
Format settings, Matrix : Default (H.263)
Muxing mode : Packed bitstream
Codec ID : XVID
Codec ID/Hint : XviD
Duration : 1h 57mn
Bit rate : 706 Kbps
Width : 560 pixels
Height : 240 pixels
Display aspect ratio : 2.35:1
Frame rate : 25.000 fps
Color space : YUV
Chroma subsampling : 4:2:0
Bit depth : 8 bits
Scan type : Progressive
Bits/(Pixel*Frame) : 0.210
Stream size : 592 MiB (85%)
Writing library : XviD 1.2.1 (UTC 2008-12-04)

Audio
ID : 1
Format : MPEG Audio
Format version : Version 1
Format profile : Layer 3
Mode : Joint stereo
Codec ID : 55
Codec ID/Hint : MP3
Duration : 1h 57mn
Bit rate mode : Variable
Bit rate : 116 Kbps
Nominal bit rate : 128 Kbps
Channel(s) : 2 channels
Sampling rate : 48.0 KHz
Stream size : 97.6 MiB (14%)
Alignment : Aligned on interleaves
Interleave, duration : 24 ms (0.60 video frame)
Interleave, preload duration : 468 ms
Writing library : LAME3.98r
Encoding settings : -m j -V 4 -q 2 -lowpass 17 --abr 128
Language : English